<mxfile host="app.diagrams.net" agent="Mozilla/5.0 (Windows NT 10.0; Win64; x64) AppleWebKit/537.36 (KHTML, like Gecko) Chrome/129.0.0.0 Safari/537.36" version="24.7.17" pages="3">
  <diagram name="Trang-1" id="XUuO-Sj4ZqHwSz0EMD9G">
    <mxGraphModel dx="1877" dy="1699" grid="1" gridSize="10" guides="1" tooltips="1" connect="1" arrows="1" fold="1" page="1" pageScale="1" pageWidth="827" pageHeight="1169" math="0" shadow="0">
      <root>
        <mxCell id="0" />
        <mxCell id="1" parent="0" />
        <mxCell id="FkCbSG15YkRULvFA8qqb-1" value="Quản lí tài khoản" style="ellipse;whiteSpace=wrap;html=1;" vertex="1" parent="1">
          <mxGeometry x="580" y="60" width="120" height="80" as="geometry" />
        </mxCell>
        <mxCell id="FkCbSG15YkRULvFA8qqb-2" value="Quản lí phim" style="ellipse;whiteSpace=wrap;html=1;" vertex="1" parent="1">
          <mxGeometry x="354" y="60" width="120" height="80" as="geometry" />
        </mxCell>
        <mxCell id="FkCbSG15YkRULvFA8qqb-3" value="Quản Lí" style="ellipse;whiteSpace=wrap;html=1;" vertex="1" parent="1">
          <mxGeometry x="354" y="200" width="120" height="80" as="geometry" />
        </mxCell>
        <mxCell id="FkCbSG15YkRULvFA8qqb-4" value="Quản lí rạp" style="ellipse;whiteSpace=wrap;html=1;" vertex="1" parent="1">
          <mxGeometry x="354" y="340" width="120" height="80" as="geometry" />
        </mxCell>
        <mxCell id="FkCbSG15YkRULvFA8qqb-5" value="Quản lí loại phim" style="ellipse;whiteSpace=wrap;html=1;" vertex="1" parent="1">
          <mxGeometry x="580" y="200" width="120" height="80" as="geometry" />
        </mxCell>
        <mxCell id="FkCbSG15YkRULvFA8qqb-6" value="Quản lí doanh thu" style="ellipse;whiteSpace=wrap;html=1;" vertex="1" parent="1">
          <mxGeometry x="600" y="310" width="120" height="80" as="geometry" />
        </mxCell>
        <mxCell id="FkCbSG15YkRULvFA8qqb-7" value="Actor" style="shape=umlActor;verticalLabelPosition=bottom;verticalAlign=top;html=1;outlineConnect=0;" vertex="1" parent="1">
          <mxGeometry x="-20" y="220" width="30" height="60" as="geometry" />
        </mxCell>
        <mxCell id="FkCbSG15YkRULvFA8qqb-8" value="" style="endArrow=none;html=1;rounded=0;exitX=1;exitY=0.3333333333333333;exitDx=0;exitDy=0;exitPerimeter=0;entryX=0;entryY=0.5;entryDx=0;entryDy=0;" edge="1" parent="1" source="FkCbSG15YkRULvFA8qqb-7" target="FkCbSG15YkRULvFA8qqb-3">
          <mxGeometry width="50" height="50" relative="1" as="geometry">
            <mxPoint x="390" y="300" as="sourcePoint" />
            <mxPoint x="350" y="250" as="targetPoint" />
          </mxGeometry>
        </mxCell>
        <mxCell id="FkCbSG15YkRULvFA8qqb-9" value="" style="endArrow=none;html=1;rounded=0;exitX=0.5;exitY=0;exitDx=0;exitDy=0;entryX=0.5;entryY=1;entryDx=0;entryDy=0;startArrow=classicThin;startFill=1;endFill=0;dashed=1;" edge="1" parent="1" source="FkCbSG15YkRULvFA8qqb-3" target="FkCbSG15YkRULvFA8qqb-2">
          <mxGeometry width="50" height="50" relative="1" as="geometry">
            <mxPoint x="430" y="180" as="sourcePoint" />
            <mxPoint x="480" y="130" as="targetPoint" />
          </mxGeometry>
        </mxCell>
        <mxCell id="FkCbSG15YkRULvFA8qqb-10" value="" style="endArrow=none;html=1;rounded=0;entryX=0;entryY=0.5;entryDx=0;entryDy=0;exitX=1;exitY=0.5;exitDx=0;exitDy=0;startArrow=classicThin;startFill=1;endFill=0;dashed=1;" edge="1" parent="1" source="FkCbSG15YkRULvFA8qqb-3" target="FkCbSG15YkRULvFA8qqb-5">
          <mxGeometry width="50" height="50" relative="1" as="geometry">
            <mxPoint x="390" y="300" as="sourcePoint" />
            <mxPoint x="440" y="250" as="targetPoint" />
          </mxGeometry>
        </mxCell>
        <mxCell id="FkCbSG15YkRULvFA8qqb-11" value="" style="endArrow=none;html=1;rounded=0;exitX=0.5;exitY=1;exitDx=0;exitDy=0;entryX=0.5;entryY=0;entryDx=0;entryDy=0;startArrow=classicThin;startFill=1;endFill=0;dashed=1;" edge="1" parent="1" source="FkCbSG15YkRULvFA8qqb-3" target="FkCbSG15YkRULvFA8qqb-4">
          <mxGeometry width="50" height="50" relative="1" as="geometry">
            <mxPoint x="470" y="330" as="sourcePoint" />
            <mxPoint x="520" y="280" as="targetPoint" />
          </mxGeometry>
        </mxCell>
        <mxCell id="FkCbSG15YkRULvFA8qqb-12" value="" style="endArrow=none;html=1;rounded=0;exitX=0.913;exitY=0.165;exitDx=0;exitDy=0;exitPerimeter=0;entryX=0;entryY=1;entryDx=0;entryDy=0;startArrow=classicThin;startFill=1;endFill=0;dashed=1;" edge="1" parent="1" source="FkCbSG15YkRULvFA8qqb-3" target="FkCbSG15YkRULvFA8qqb-1">
          <mxGeometry width="50" height="50" relative="1" as="geometry">
            <mxPoint x="530" y="190" as="sourcePoint" />
            <mxPoint x="580" y="140" as="targetPoint" />
          </mxGeometry>
        </mxCell>
        <mxCell id="FkCbSG15YkRULvFA8qqb-13" value="" style="endArrow=none;html=1;rounded=0;entryX=0.097;entryY=0.185;entryDx=0;entryDy=0;entryPerimeter=0;exitX=1;exitY=1;exitDx=0;exitDy=0;startArrow=classicThin;startFill=1;endFill=0;dashed=1;" edge="1" parent="1" source="FkCbSG15YkRULvFA8qqb-3" target="FkCbSG15YkRULvFA8qqb-6">
          <mxGeometry width="50" height="50" relative="1" as="geometry">
            <mxPoint x="390" y="300" as="sourcePoint" />
            <mxPoint x="440" y="250" as="targetPoint" />
          </mxGeometry>
        </mxCell>
        <mxCell id="FkCbSG15YkRULvFA8qqb-14" value="Quản lí danh sách&lt;div&gt;phim&lt;/div&gt;" style="ellipse;whiteSpace=wrap;html=1;" vertex="1" parent="1">
          <mxGeometry x="120" y="30" width="150" height="50" as="geometry" />
        </mxCell>
        <mxCell id="FkCbSG15YkRULvFA8qqb-16" value="" style="endArrow=classicThin;html=1;rounded=0;exitX=1;exitY=1;exitDx=0;exitDy=0;entryX=0;entryY=0.5;entryDx=0;entryDy=0;startArrow=none;startFill=0;dashed=1;endFill=1;" edge="1" parent="1" source="FkCbSG15YkRULvFA8qqb-14" target="FkCbSG15YkRULvFA8qqb-2">
          <mxGeometry width="50" height="50" relative="1" as="geometry">
            <mxPoint x="380" y="10" as="sourcePoint" />
            <mxPoint x="430" y="-40" as="targetPoint" />
          </mxGeometry>
        </mxCell>
        <mxCell id="FkCbSG15YkRULvFA8qqb-17" value="Hiệu chỉnh - Dừng chiếu" style="ellipse;whiteSpace=wrap;html=1;" vertex="1" parent="1">
          <mxGeometry x="250" y="-40" width="150" height="40" as="geometry" />
        </mxCell>
        <mxCell id="FkCbSG15YkRULvFA8qqb-18" value="" style="endArrow=classicThin;html=1;rounded=0;exitX=0.597;exitY=1.003;exitDx=0;exitDy=0;exitPerimeter=0;entryX=0.24;entryY=0.113;entryDx=0;entryDy=0;entryPerimeter=0;endFill=1;dashed=1;" edge="1" parent="1" source="FkCbSG15YkRULvFA8qqb-17" target="FkCbSG15YkRULvFA8qqb-2">
          <mxGeometry width="50" height="50" relative="1" as="geometry">
            <mxPoint x="390" y="190" as="sourcePoint" />
            <mxPoint x="440" y="140" as="targetPoint" />
          </mxGeometry>
        </mxCell>
        <mxCell id="FkCbSG15YkRULvFA8qqb-20" value="Quản lí tài khoản nhân viên" style="ellipse;whiteSpace=wrap;html=1;" vertex="1" parent="1">
          <mxGeometry x="510" y="-50" width="140" height="50" as="geometry" />
        </mxCell>
        <mxCell id="FkCbSG15YkRULvFA8qqb-21" value="Quản lí khách hàng" style="ellipse;whiteSpace=wrap;html=1;" vertex="1" parent="1">
          <mxGeometry x="690" y="-40" width="120" height="40" as="geometry" />
        </mxCell>
        <mxCell id="FkCbSG15YkRULvFA8qqb-22" value="" style="endArrow=classicThin;html=1;rounded=0;entryX=0;entryY=0;entryDx=0;entryDy=0;exitX=0.567;exitY=1.033;exitDx=0;exitDy=0;exitPerimeter=0;endFill=1;dashed=1;" edge="1" parent="1" source="FkCbSG15YkRULvFA8qqb-20" target="FkCbSG15YkRULvFA8qqb-1">
          <mxGeometry width="50" height="50" relative="1" as="geometry">
            <mxPoint x="610" y="50" as="sourcePoint" />
            <mxPoint x="660" as="targetPoint" />
          </mxGeometry>
        </mxCell>
        <mxCell id="FkCbSG15YkRULvFA8qqb-23" value="" style="endArrow=classicThin;html=1;rounded=0;entryX=1;entryY=0;entryDx=0;entryDy=0;exitX=0;exitY=1;exitDx=0;exitDy=0;endFill=1;dashed=1;" edge="1" parent="1" source="FkCbSG15YkRULvFA8qqb-21" target="FkCbSG15YkRULvFA8qqb-1">
          <mxGeometry width="50" height="50" relative="1" as="geometry">
            <mxPoint x="720" y="120" as="sourcePoint" />
            <mxPoint x="770" y="70" as="targetPoint" />
          </mxGeometry>
        </mxCell>
        <mxCell id="FkCbSG15YkRULvFA8qqb-24" value="Quản lí danh sách&lt;div&gt;loại phim&lt;/div&gt;" style="ellipse;whiteSpace=wrap;html=1;" vertex="1" parent="1">
          <mxGeometry x="740" y="80" width="130" height="40" as="geometry" />
        </mxCell>
        <mxCell id="FkCbSG15YkRULvFA8qqb-25" value="Xem danh sách loại phim" style="ellipse;whiteSpace=wrap;html=1;" vertex="1" parent="1">
          <mxGeometry x="770" y="150" width="120" height="50" as="geometry" />
        </mxCell>
        <mxCell id="FkCbSG15YkRULvFA8qqb-26" value="" style="endArrow=classicThin;html=1;rounded=0;exitX=0;exitY=0.5;exitDx=0;exitDy=0;endFill=1;dashed=1;" edge="1" parent="1" source="FkCbSG15YkRULvFA8qqb-24" target="FkCbSG15YkRULvFA8qqb-5">
          <mxGeometry width="50" height="50" relative="1" as="geometry">
            <mxPoint x="670" y="190" as="sourcePoint" />
            <mxPoint x="720" y="140" as="targetPoint" />
          </mxGeometry>
        </mxCell>
        <mxCell id="FkCbSG15YkRULvFA8qqb-27" value="" style="endArrow=classicThin;html=1;rounded=0;entryX=1;entryY=0.5;entryDx=0;entryDy=0;exitX=0;exitY=0.5;exitDx=0;exitDy=0;endFill=1;dashed=1;" edge="1" parent="1" source="FkCbSG15YkRULvFA8qqb-25" target="FkCbSG15YkRULvFA8qqb-5">
          <mxGeometry width="50" height="50" relative="1" as="geometry">
            <mxPoint x="700" y="320" as="sourcePoint" />
            <mxPoint x="750" y="270" as="targetPoint" />
            <Array as="points">
              <mxPoint x="770" y="170" />
            </Array>
          </mxGeometry>
        </mxCell>
        <mxCell id="FkCbSG15YkRULvFA8qqb-28" value="Thống kê doanh thu từng phim của tất cả các rạp" style="ellipse;whiteSpace=wrap;html=1;" vertex="1" parent="1">
          <mxGeometry x="790" y="270" width="140" height="80" as="geometry" />
        </mxCell>
        <mxCell id="FkCbSG15YkRULvFA8qqb-29" value="" style="endArrow=classicThin;html=1;rounded=0;entryX=1;entryY=0.5;entryDx=0;entryDy=0;exitX=0;exitY=0.5;exitDx=0;exitDy=0;endFill=1;dashed=1;" edge="1" parent="1" source="FkCbSG15YkRULvFA8qqb-28" target="FkCbSG15YkRULvFA8qqb-6">
          <mxGeometry width="50" height="50" relative="1" as="geometry">
            <mxPoint x="730" y="440" as="sourcePoint" />
            <mxPoint x="780" y="390" as="targetPoint" />
          </mxGeometry>
        </mxCell>
        <mxCell id="FkCbSG15YkRULvFA8qqb-30" value="Quản lí danh sách rạp" style="ellipse;whiteSpace=wrap;html=1;" vertex="1" parent="1">
          <mxGeometry x="535" y="410" width="120" height="60" as="geometry" />
        </mxCell>
        <mxCell id="FkCbSG15YkRULvFA8qqb-31" value="" style="endArrow=classicThin;html=1;rounded=0;entryX=1;entryY=1;entryDx=0;entryDy=0;endFill=1;dashed=1;" edge="1" parent="1" source="FkCbSG15YkRULvFA8qqb-30" target="FkCbSG15YkRULvFA8qqb-4">
          <mxGeometry width="50" height="50" relative="1" as="geometry">
            <mxPoint x="300" y="470" as="sourcePoint" />
            <mxPoint x="350" y="420" as="targetPoint" />
          </mxGeometry>
        </mxCell>
        <mxCell id="FkCbSG15YkRULvFA8qqb-32" value="Đăng nhập" style="ellipse;whiteSpace=wrap;html=1;" vertex="1" parent="1">
          <mxGeometry x="150" y="310" width="120" height="50" as="geometry" />
        </mxCell>
        <mxCell id="FkCbSG15YkRULvFA8qqb-33" value="" style="endArrow=classicThin;html=1;rounded=0;entryX=0.967;entryY=0.268;entryDx=0;entryDy=0;entryPerimeter=0;endFill=1;startArrow=none;startFill=0;dashed=1;" edge="1" parent="1" source="FkCbSG15YkRULvFA8qqb-3" target="FkCbSG15YkRULvFA8qqb-32">
          <mxGeometry width="50" height="50" relative="1" as="geometry">
            <mxPoint x="300" y="320" as="sourcePoint" />
            <mxPoint x="350" y="270" as="targetPoint" />
          </mxGeometry>
        </mxCell>
        <mxCell id="FkCbSG15YkRULvFA8qqb-34" value="&amp;lt;&amp;lt;include&amp;gt;&amp;gt;" style="text;html=1;align=center;verticalAlign=middle;resizable=0;points=[];autosize=1;strokeColor=none;fillColor=none;" vertex="1" parent="1">
          <mxGeometry x="264" y="270" width="90" height="30" as="geometry" />
        </mxCell>
        <mxCell id="FkCbSG15YkRULvFA8qqb-35" value="&amp;lt;&amp;lt;extend&amp;gt;&amp;gt;" style="text;html=1;align=center;verticalAlign=middle;resizable=0;points=[];autosize=1;strokeColor=none;fillColor=none;" vertex="1" parent="1">
          <mxGeometry x="250" y="80" width="90" height="30" as="geometry" />
        </mxCell>
        <mxCell id="FkCbSG15YkRULvFA8qqb-36" value="&amp;lt;&amp;lt;extend&amp;gt;&amp;gt;" style="text;html=1;align=center;verticalAlign=middle;resizable=0;points=[];autosize=1;strokeColor=none;fillColor=none;" vertex="1" parent="1">
          <mxGeometry x="350" y="20" width="90" height="30" as="geometry" />
        </mxCell>
        <mxCell id="FkCbSG15YkRULvFA8qqb-37" value="&amp;lt;&amp;lt;extend&amp;gt;&amp;gt;" style="text;html=1;align=center;verticalAlign=middle;resizable=0;points=[];autosize=1;strokeColor=none;fillColor=none;" vertex="1" parent="1">
          <mxGeometry x="535" y="20" width="90" height="30" as="geometry" />
        </mxCell>
        <mxCell id="FkCbSG15YkRULvFA8qqb-38" value="&amp;lt;&amp;lt;extend&amp;gt;&amp;gt;" style="text;html=1;align=center;verticalAlign=middle;resizable=0;points=[];autosize=1;strokeColor=none;fillColor=none;" vertex="1" parent="1">
          <mxGeometry x="680" y="20" width="90" height="30" as="geometry" />
        </mxCell>
        <mxCell id="FkCbSG15YkRULvFA8qqb-39" value="&amp;lt;&amp;lt;extend&amp;gt;&amp;gt;" style="text;html=1;align=center;verticalAlign=middle;resizable=0;points=[];autosize=1;strokeColor=none;fillColor=none;" vertex="1" parent="1">
          <mxGeometry x="670" y="140" width="90" height="30" as="geometry" />
        </mxCell>
        <mxCell id="FkCbSG15YkRULvFA8qqb-40" value="&amp;lt;&amp;lt;extend&amp;gt;&amp;gt;" style="text;html=1;align=center;verticalAlign=middle;resizable=0;points=[];autosize=1;strokeColor=none;fillColor=none;" vertex="1" parent="1">
          <mxGeometry x="710" y="200" width="90" height="30" as="geometry" />
        </mxCell>
        <mxCell id="FkCbSG15YkRULvFA8qqb-41" value="&amp;lt;&amp;lt;extend&amp;gt;&amp;gt;" style="text;html=1;align=center;verticalAlign=middle;resizable=0;points=[];autosize=1;strokeColor=none;fillColor=none;" vertex="1" parent="1">
          <mxGeometry x="700" y="300" width="90" height="30" as="geometry" />
        </mxCell>
        <mxCell id="FkCbSG15YkRULvFA8qqb-42" value="&amp;lt;&amp;lt;extend&amp;gt;&amp;gt;" style="text;html=1;align=center;verticalAlign=middle;resizable=0;points=[];autosize=1;strokeColor=none;fillColor=none;" vertex="1" parent="1">
          <mxGeometry x="510" y="280" width="90" height="30" as="geometry" />
        </mxCell>
        <mxCell id="FkCbSG15YkRULvFA8qqb-43" value="&amp;lt;&amp;lt;extend&amp;gt;&amp;gt;" style="text;html=1;align=center;verticalAlign=middle;resizable=0;points=[];autosize=1;strokeColor=none;fillColor=none;" vertex="1" parent="1">
          <mxGeometry x="474" y="400" width="90" height="30" as="geometry" />
        </mxCell>
        <mxCell id="FkCbSG15YkRULvFA8qqb-44" value="&amp;lt;&amp;lt;extend&amp;gt;&amp;gt;" style="text;html=1;align=center;verticalAlign=middle;resizable=0;points=[];autosize=1;strokeColor=none;fillColor=none;" vertex="1" parent="1">
          <mxGeometry x="474" y="140" width="90" height="30" as="geometry" />
        </mxCell>
        <mxCell id="FkCbSG15YkRULvFA8qqb-45" value="&amp;lt;&amp;lt;extend&amp;gt;&amp;gt;" style="text;html=1;align=center;verticalAlign=middle;resizable=0;points=[];autosize=1;strokeColor=none;fillColor=none;" vertex="1" parent="1">
          <mxGeometry x="500" y="220" width="90" height="30" as="geometry" />
        </mxCell>
        <mxCell id="FkCbSG15YkRULvFA8qqb-46" value="" style="rounded=0;whiteSpace=wrap;html=1;fillStyle=dashed;fillColor=none;" vertex="1" parent="1">
          <mxGeometry x="60" y="-60" width="910" height="540" as="geometry" />
        </mxCell>
      </root>
    </mxGraphModel>
  </diagram>
  <diagram id="VUjF_VidT5yqT0pPPHdX" name="Quảnlirap">
    <mxGraphModel dx="1050" dy="530" grid="1" gridSize="10" guides="1" tooltips="1" connect="1" arrows="1" fold="1" page="1" pageScale="1" pageWidth="827" pageHeight="1169" math="0" shadow="0">
      <root>
        <mxCell id="0" />
        <mxCell id="1" parent="0" />
        <mxCell id="H4WFvdBHOnX_bVAzTEjQ-1" value="Quản lí phòng chiếu" style="ellipse;whiteSpace=wrap;html=1;" vertex="1" parent="1">
          <mxGeometry x="750" y="230" width="120" height="80" as="geometry" />
        </mxCell>
        <mxCell id="H4WFvdBHOnX_bVAzTEjQ-2" value="Quản lí lịch chiếu" style="ellipse;whiteSpace=wrap;html=1;" vertex="1" parent="1">
          <mxGeometry x="524" y="230" width="120" height="80" as="geometry" />
        </mxCell>
        <mxCell id="H4WFvdBHOnX_bVAzTEjQ-3" value="Quản Lí" style="ellipse;whiteSpace=wrap;html=1;" vertex="1" parent="1">
          <mxGeometry x="524" y="370" width="120" height="80" as="geometry" />
        </mxCell>
        <mxCell id="H4WFvdBHOnX_bVAzTEjQ-5" value="Quản lí vé" style="ellipse;whiteSpace=wrap;html=1;" vertex="1" parent="1">
          <mxGeometry x="750" y="370" width="120" height="80" as="geometry" />
        </mxCell>
        <mxCell id="H4WFvdBHOnX_bVAzTEjQ-6" value="Quản lí doanh thu" style="ellipse;whiteSpace=wrap;html=1;" vertex="1" parent="1">
          <mxGeometry x="770" y="480" width="120" height="80" as="geometry" />
        </mxCell>
        <mxCell id="H4WFvdBHOnX_bVAzTEjQ-7" value="Actor" style="shape=umlActor;verticalLabelPosition=bottom;verticalAlign=top;html=1;outlineConnect=0;" vertex="1" parent="1">
          <mxGeometry x="150" y="390" width="30" height="60" as="geometry" />
        </mxCell>
        <mxCell id="H4WFvdBHOnX_bVAzTEjQ-8" value="" style="endArrow=none;html=1;rounded=0;exitX=1;exitY=0.3333333333333333;exitDx=0;exitDy=0;exitPerimeter=0;entryX=0;entryY=0.5;entryDx=0;entryDy=0;" edge="1" parent="1" source="H4WFvdBHOnX_bVAzTEjQ-7" target="H4WFvdBHOnX_bVAzTEjQ-3">
          <mxGeometry width="50" height="50" relative="1" as="geometry">
            <mxPoint x="560" y="470" as="sourcePoint" />
            <mxPoint x="520" y="420" as="targetPoint" />
          </mxGeometry>
        </mxCell>
        <mxCell id="H4WFvdBHOnX_bVAzTEjQ-9" value="" style="endArrow=none;html=1;rounded=0;exitX=0.5;exitY=0;exitDx=0;exitDy=0;entryX=0.5;entryY=1;entryDx=0;entryDy=0;startArrow=classicThin;startFill=1;endFill=0;dashed=1;" edge="1" parent="1" source="H4WFvdBHOnX_bVAzTEjQ-3" target="H4WFvdBHOnX_bVAzTEjQ-2">
          <mxGeometry width="50" height="50" relative="1" as="geometry">
            <mxPoint x="600" y="350" as="sourcePoint" />
            <mxPoint x="650" y="300" as="targetPoint" />
          </mxGeometry>
        </mxCell>
        <mxCell id="H4WFvdBHOnX_bVAzTEjQ-10" value="" style="endArrow=none;html=1;rounded=0;entryX=0;entryY=0.5;entryDx=0;entryDy=0;exitX=1;exitY=0.5;exitDx=0;exitDy=0;startArrow=classicThin;startFill=1;endFill=0;dashed=1;" edge="1" parent="1" source="H4WFvdBHOnX_bVAzTEjQ-3" target="H4WFvdBHOnX_bVAzTEjQ-5">
          <mxGeometry width="50" height="50" relative="1" as="geometry">
            <mxPoint x="560" y="470" as="sourcePoint" />
            <mxPoint x="610" y="420" as="targetPoint" />
          </mxGeometry>
        </mxCell>
        <mxCell id="H4WFvdBHOnX_bVAzTEjQ-12" value="" style="endArrow=none;html=1;rounded=0;exitX=0.913;exitY=0.165;exitDx=0;exitDy=0;exitPerimeter=0;entryX=0;entryY=1;entryDx=0;entryDy=0;startArrow=classicThin;startFill=1;endFill=0;dashed=1;" edge="1" parent="1" source="H4WFvdBHOnX_bVAzTEjQ-3" target="H4WFvdBHOnX_bVAzTEjQ-1">
          <mxGeometry width="50" height="50" relative="1" as="geometry">
            <mxPoint x="700" y="360" as="sourcePoint" />
            <mxPoint x="750" y="310" as="targetPoint" />
          </mxGeometry>
        </mxCell>
        <mxCell id="H4WFvdBHOnX_bVAzTEjQ-13" value="" style="endArrow=none;html=1;rounded=0;entryX=0.097;entryY=0.185;entryDx=0;entryDy=0;entryPerimeter=0;exitX=1;exitY=1;exitDx=0;exitDy=0;startArrow=classicThin;startFill=1;endFill=0;dashed=1;" edge="1" parent="1" source="H4WFvdBHOnX_bVAzTEjQ-3" target="H4WFvdBHOnX_bVAzTEjQ-6">
          <mxGeometry width="50" height="50" relative="1" as="geometry">
            <mxPoint x="560" y="470" as="sourcePoint" />
            <mxPoint x="610" y="420" as="targetPoint" />
          </mxGeometry>
        </mxCell>
        <mxCell id="H4WFvdBHOnX_bVAzTEjQ-14" value="Quản lí lịch chiếu" style="ellipse;whiteSpace=wrap;html=1;" vertex="1" parent="1">
          <mxGeometry x="290" y="200" width="150" height="50" as="geometry" />
        </mxCell>
        <mxCell id="H4WFvdBHOnX_bVAzTEjQ-15" value="" style="endArrow=classicThin;html=1;rounded=0;exitX=1;exitY=1;exitDx=0;exitDy=0;entryX=0;entryY=0.5;entryDx=0;entryDy=0;startArrow=none;startFill=0;dashed=1;endFill=1;" edge="1" parent="1" source="H4WFvdBHOnX_bVAzTEjQ-14" target="H4WFvdBHOnX_bVAzTEjQ-2">
          <mxGeometry width="50" height="50" relative="1" as="geometry">
            <mxPoint x="550" y="180" as="sourcePoint" />
            <mxPoint x="600" y="130" as="targetPoint" />
          </mxGeometry>
        </mxCell>
        <mxCell id="H4WFvdBHOnX_bVAzTEjQ-16" value="Xem danh sách lịch chiếu trong ngày&amp;nbsp;" style="ellipse;whiteSpace=wrap;html=1;" vertex="1" parent="1">
          <mxGeometry x="410" y="130" width="160" height="40" as="geometry" />
        </mxCell>
        <mxCell id="H4WFvdBHOnX_bVAzTEjQ-17" value="" style="endArrow=classicThin;html=1;rounded=0;exitX=0.597;exitY=1.003;exitDx=0;exitDy=0;exitPerimeter=0;entryX=0.24;entryY=0.113;entryDx=0;entryDy=0;entryPerimeter=0;endFill=1;dashed=1;" edge="1" parent="1" source="H4WFvdBHOnX_bVAzTEjQ-16" target="H4WFvdBHOnX_bVAzTEjQ-2">
          <mxGeometry width="50" height="50" relative="1" as="geometry">
            <mxPoint x="560" y="360" as="sourcePoint" />
            <mxPoint x="610" y="310" as="targetPoint" />
          </mxGeometry>
        </mxCell>
        <mxCell id="H4WFvdBHOnX_bVAzTEjQ-18" value="Quản lí danh sách phòng chiếu" style="ellipse;whiteSpace=wrap;html=1;" vertex="1" parent="1">
          <mxGeometry x="680" y="120" width="140" height="50" as="geometry" />
        </mxCell>
        <mxCell id="H4WFvdBHOnX_bVAzTEjQ-19" value="Xem thông tin các phòng đang có lịch chiếu" style="ellipse;whiteSpace=wrap;html=1;" vertex="1" parent="1">
          <mxGeometry x="860" y="130" width="250" height="40" as="geometry" />
        </mxCell>
        <mxCell id="H4WFvdBHOnX_bVAzTEjQ-20" value="" style="endArrow=classicThin;html=1;rounded=0;entryX=0;entryY=0;entryDx=0;entryDy=0;exitX=0.567;exitY=1.033;exitDx=0;exitDy=0;exitPerimeter=0;endFill=1;dashed=1;" edge="1" parent="1" source="H4WFvdBHOnX_bVAzTEjQ-18" target="H4WFvdBHOnX_bVAzTEjQ-1">
          <mxGeometry width="50" height="50" relative="1" as="geometry">
            <mxPoint x="780" y="220" as="sourcePoint" />
            <mxPoint x="830" y="170" as="targetPoint" />
          </mxGeometry>
        </mxCell>
        <mxCell id="H4WFvdBHOnX_bVAzTEjQ-21" value="" style="endArrow=classicThin;html=1;rounded=0;entryX=1;entryY=0;entryDx=0;entryDy=0;exitX=0;exitY=1;exitDx=0;exitDy=0;endFill=1;dashed=1;" edge="1" parent="1" source="H4WFvdBHOnX_bVAzTEjQ-19" target="H4WFvdBHOnX_bVAzTEjQ-1">
          <mxGeometry width="50" height="50" relative="1" as="geometry">
            <mxPoint x="890" y="290" as="sourcePoint" />
            <mxPoint x="940" y="240" as="targetPoint" />
          </mxGeometry>
        </mxCell>
        <mxCell id="H4WFvdBHOnX_bVAzTEjQ-22" value="Xem danh sách vé được đặt trong 1 suất chiếu" style="ellipse;whiteSpace=wrap;html=1;" vertex="1" parent="1">
          <mxGeometry x="950" y="290" width="190" height="60" as="geometry" />
        </mxCell>
        <mxCell id="H4WFvdBHOnX_bVAzTEjQ-24" value="" style="endArrow=classicThin;html=1;rounded=0;exitX=0;exitY=0.5;exitDx=0;exitDy=0;endFill=1;dashed=1;" edge="1" parent="1" source="H4WFvdBHOnX_bVAzTEjQ-22" target="H4WFvdBHOnX_bVAzTEjQ-5">
          <mxGeometry width="50" height="50" relative="1" as="geometry">
            <mxPoint x="840" y="360" as="sourcePoint" />
            <mxPoint x="890" y="310" as="targetPoint" />
          </mxGeometry>
        </mxCell>
        <mxCell id="H4WFvdBHOnX_bVAzTEjQ-26" value="Thống kê doanh thu từng phim&amp;nbsp;" style="ellipse;whiteSpace=wrap;html=1;" vertex="1" parent="1">
          <mxGeometry x="960" y="460" width="160" height="60" as="geometry" />
        </mxCell>
        <mxCell id="H4WFvdBHOnX_bVAzTEjQ-27" value="" style="endArrow=classicThin;html=1;rounded=0;entryX=1;entryY=0.5;entryDx=0;entryDy=0;exitX=0;exitY=0.5;exitDx=0;exitDy=0;endFill=1;dashed=1;" edge="1" parent="1" source="H4WFvdBHOnX_bVAzTEjQ-26" target="H4WFvdBHOnX_bVAzTEjQ-6">
          <mxGeometry width="50" height="50" relative="1" as="geometry">
            <mxPoint x="900" y="610" as="sourcePoint" />
            <mxPoint x="950" y="560" as="targetPoint" />
          </mxGeometry>
        </mxCell>
        <mxCell id="H4WFvdBHOnX_bVAzTEjQ-30" value="Đăng nhập" style="ellipse;whiteSpace=wrap;html=1;" vertex="1" parent="1">
          <mxGeometry x="320" y="480" width="120" height="50" as="geometry" />
        </mxCell>
        <mxCell id="H4WFvdBHOnX_bVAzTEjQ-31" value="" style="endArrow=classicThin;html=1;rounded=0;entryX=0.967;entryY=0.268;entryDx=0;entryDy=0;entryPerimeter=0;endFill=1;startArrow=none;startFill=0;dashed=1;" edge="1" parent="1" source="H4WFvdBHOnX_bVAzTEjQ-3" target="H4WFvdBHOnX_bVAzTEjQ-30">
          <mxGeometry width="50" height="50" relative="1" as="geometry">
            <mxPoint x="470" y="490" as="sourcePoint" />
            <mxPoint x="520" y="440" as="targetPoint" />
          </mxGeometry>
        </mxCell>
        <mxCell id="H4WFvdBHOnX_bVAzTEjQ-32" value="&amp;lt;&amp;lt;include&amp;gt;&amp;gt;" style="text;html=1;align=center;verticalAlign=middle;resizable=0;points=[];autosize=1;strokeColor=none;fillColor=none;" vertex="1" parent="1">
          <mxGeometry x="434" y="440" width="90" height="30" as="geometry" />
        </mxCell>
        <mxCell id="H4WFvdBHOnX_bVAzTEjQ-33" value="&amp;lt;&amp;lt;extend&amp;gt;&amp;gt;" style="text;html=1;align=center;verticalAlign=middle;resizable=0;points=[];autosize=1;strokeColor=none;fillColor=none;" vertex="1" parent="1">
          <mxGeometry x="420" y="250" width="90" height="30" as="geometry" />
        </mxCell>
        <mxCell id="H4WFvdBHOnX_bVAzTEjQ-34" value="&amp;lt;&amp;lt;extend&amp;gt;&amp;gt;" style="text;html=1;align=center;verticalAlign=middle;resizable=0;points=[];autosize=1;strokeColor=none;fillColor=none;" vertex="1" parent="1">
          <mxGeometry x="520" y="190" width="90" height="30" as="geometry" />
        </mxCell>
        <mxCell id="H4WFvdBHOnX_bVAzTEjQ-35" value="&amp;lt;&amp;lt;extend&amp;gt;&amp;gt;" style="text;html=1;align=center;verticalAlign=middle;resizable=0;points=[];autosize=1;strokeColor=none;fillColor=none;" vertex="1" parent="1">
          <mxGeometry x="705" y="190" width="90" height="30" as="geometry" />
        </mxCell>
        <mxCell id="H4WFvdBHOnX_bVAzTEjQ-36" value="&amp;lt;&amp;lt;extend&amp;gt;&amp;gt;" style="text;html=1;align=center;verticalAlign=middle;resizable=0;points=[];autosize=1;strokeColor=none;fillColor=none;" vertex="1" parent="1">
          <mxGeometry x="850" y="190" width="90" height="30" as="geometry" />
        </mxCell>
        <mxCell id="H4WFvdBHOnX_bVAzTEjQ-37" value="&amp;lt;&amp;lt;extend&amp;gt;&amp;gt;" style="text;html=1;align=center;verticalAlign=middle;resizable=0;points=[];autosize=1;strokeColor=none;fillColor=none;" vertex="1" parent="1">
          <mxGeometry x="850" y="320" width="90" height="30" as="geometry" />
        </mxCell>
        <mxCell id="H4WFvdBHOnX_bVAzTEjQ-39" value="&amp;lt;&amp;lt;extend&amp;gt;&amp;gt;" style="text;html=1;align=center;verticalAlign=middle;resizable=0;points=[];autosize=1;strokeColor=none;fillColor=none;" vertex="1" parent="1">
          <mxGeometry x="890" y="550" width="90" height="30" as="geometry" />
        </mxCell>
        <mxCell id="H4WFvdBHOnX_bVAzTEjQ-40" value="&amp;lt;&amp;lt;extend&amp;gt;&amp;gt;" style="text;html=1;align=center;verticalAlign=middle;resizable=0;points=[];autosize=1;strokeColor=none;fillColor=none;" vertex="1" parent="1">
          <mxGeometry x="680" y="450" width="90" height="30" as="geometry" />
        </mxCell>
        <mxCell id="H4WFvdBHOnX_bVAzTEjQ-42" value="&amp;lt;&amp;lt;extend&amp;gt;&amp;gt;" style="text;html=1;align=center;verticalAlign=middle;resizable=0;points=[];autosize=1;strokeColor=none;fillColor=none;" vertex="1" parent="1">
          <mxGeometry x="644" y="310" width="90" height="30" as="geometry" />
        </mxCell>
        <mxCell id="H4WFvdBHOnX_bVAzTEjQ-43" value="&amp;lt;&amp;lt;extend&amp;gt;&amp;gt;" style="text;html=1;align=center;verticalAlign=middle;resizable=0;points=[];autosize=1;strokeColor=none;fillColor=none;" vertex="1" parent="1">
          <mxGeometry x="670" y="390" width="90" height="30" as="geometry" />
        </mxCell>
        <mxCell id="H4WFvdBHOnX_bVAzTEjQ-45" value="Thống kê doanh thu phim trong 1 suất chiếu&amp;nbsp;" style="ellipse;whiteSpace=wrap;html=1;" vertex="1" parent="1">
          <mxGeometry x="960" y="560" width="160" height="60" as="geometry" />
        </mxCell>
        <mxCell id="H4WFvdBHOnX_bVAzTEjQ-46" value="" style="endArrow=classicThin;html=1;rounded=0;entryX=1;entryY=1;entryDx=0;entryDy=0;exitX=0;exitY=0.5;exitDx=0;exitDy=0;endFill=1;dashed=1;" edge="1" parent="1" source="H4WFvdBHOnX_bVAzTEjQ-45" target="H4WFvdBHOnX_bVAzTEjQ-6">
          <mxGeometry width="50" height="50" relative="1" as="geometry">
            <mxPoint x="900" y="550" as="sourcePoint" />
            <mxPoint x="830" y="580" as="targetPoint" />
          </mxGeometry>
        </mxCell>
        <mxCell id="H4WFvdBHOnX_bVAzTEjQ-47" value="&amp;lt;&amp;lt;extend&amp;gt;&amp;gt;" style="text;html=1;align=center;verticalAlign=middle;resizable=0;points=[];autosize=1;strokeColor=none;fillColor=none;" vertex="1" parent="1">
          <mxGeometry x="880" y="470" width="90" height="30" as="geometry" />
        </mxCell>
        <mxCell id="H4WFvdBHOnX_bVAzTEjQ-48" value="&amp;lt;&amp;lt;extend&amp;gt;&amp;gt;" style="text;html=1;align=center;verticalAlign=middle;resizable=0;points=[];autosize=1;strokeColor=none;fillColor=none;" vertex="1" parent="1">
          <mxGeometry x="510" y="330" width="90" height="30" as="geometry" />
        </mxCell>
        <mxCell id="H4WFvdBHOnX_bVAzTEjQ-49" value="" style="rounded=0;whiteSpace=wrap;html=1;fillStyle=dashed;fillColor=none;" vertex="1" parent="1">
          <mxGeometry x="270" y="110" width="920" height="520" as="geometry" />
        </mxCell>
      </root>
    </mxGraphModel>
  </diagram>
  <diagram id="BSk46Gy_yzdBgPE-s7C0" name="Khachhang">
    <mxGraphModel dx="1994" dy="589" grid="1" gridSize="10" guides="1" tooltips="1" connect="1" arrows="1" fold="1" page="1" pageScale="1" pageWidth="827" pageHeight="1169" math="0" shadow="0">
      <root>
        <mxCell id="0" />
        <mxCell id="1" parent="0" />
        <mxCell id="fmDMcZmwCV9njAwdJpqf-1" value="Hoàn vé" style="ellipse;whiteSpace=wrap;html=1;" vertex="1" parent="1">
          <mxGeometry x="580" y="60" width="120" height="80" as="geometry" />
        </mxCell>
        <mxCell id="fmDMcZmwCV9njAwdJpqf-2" value="Đặt vé xem phim" style="ellipse;whiteSpace=wrap;html=1;" vertex="1" parent="1">
          <mxGeometry x="354" y="60" width="120" height="80" as="geometry" />
        </mxCell>
        <mxCell id="fmDMcZmwCV9njAwdJpqf-3" value="Đăng nhập" style="ellipse;whiteSpace=wrap;html=1;" vertex="1" parent="1">
          <mxGeometry x="354" y="200" width="120" height="80" as="geometry" />
        </mxCell>
        <mxCell id="fmDMcZmwCV9njAwdJpqf-4" value="Quản lí tài khoản" style="ellipse;whiteSpace=wrap;html=1;" vertex="1" parent="1">
          <mxGeometry x="430" y="370" width="120" height="70" as="geometry" />
        </mxCell>
        <mxCell id="fmDMcZmwCV9njAwdJpqf-5" value="Quản lí lịch sử hoạt động" style="ellipse;whiteSpace=wrap;html=1;" vertex="1" parent="1">
          <mxGeometry x="580" y="200" width="120" height="80" as="geometry" />
        </mxCell>
        <mxCell id="fmDMcZmwCV9njAwdJpqf-6" value="Xem danh sách rạp chiếu" style="ellipse;whiteSpace=wrap;html=1;" vertex="1" parent="1">
          <mxGeometry x="580" y="310" width="120" height="80" as="geometry" />
        </mxCell>
        <mxCell id="fmDMcZmwCV9njAwdJpqf-7" value="Khách Hàng" style="shape=umlActor;verticalLabelPosition=bottom;verticalAlign=top;html=1;outlineConnect=0;" vertex="1" parent="1">
          <mxGeometry x="-20" y="220" width="30" height="60" as="geometry" />
        </mxCell>
        <mxCell id="fmDMcZmwCV9njAwdJpqf-8" value="" style="endArrow=none;html=1;rounded=0;exitX=1;exitY=0.3333333333333333;exitDx=0;exitDy=0;exitPerimeter=0;entryX=0;entryY=0.5;entryDx=0;entryDy=0;" edge="1" parent="1" source="fmDMcZmwCV9njAwdJpqf-7" target="fmDMcZmwCV9njAwdJpqf-3">
          <mxGeometry width="50" height="50" relative="1" as="geometry">
            <mxPoint x="390" y="300" as="sourcePoint" />
            <mxPoint x="350" y="250" as="targetPoint" />
          </mxGeometry>
        </mxCell>
        <mxCell id="fmDMcZmwCV9njAwdJpqf-9" value="" style="endArrow=none;html=1;rounded=0;exitX=0.5;exitY=0;exitDx=0;exitDy=0;entryX=0.5;entryY=1;entryDx=0;entryDy=0;startArrow=classicThin;startFill=1;endFill=0;dashed=1;" edge="1" parent="1" source="fmDMcZmwCV9njAwdJpqf-3" target="fmDMcZmwCV9njAwdJpqf-2">
          <mxGeometry width="50" height="50" relative="1" as="geometry">
            <mxPoint x="430" y="180" as="sourcePoint" />
            <mxPoint x="480" y="130" as="targetPoint" />
          </mxGeometry>
        </mxCell>
        <mxCell id="fmDMcZmwCV9njAwdJpqf-10" value="" style="endArrow=none;html=1;rounded=0;entryX=0;entryY=0.5;entryDx=0;entryDy=0;exitX=1;exitY=0.5;exitDx=0;exitDy=0;startArrow=classicThin;startFill=1;endFill=0;dashed=1;" edge="1" parent="1" source="fmDMcZmwCV9njAwdJpqf-3" target="fmDMcZmwCV9njAwdJpqf-5">
          <mxGeometry width="50" height="50" relative="1" as="geometry">
            <mxPoint x="390" y="300" as="sourcePoint" />
            <mxPoint x="440" y="250" as="targetPoint" />
          </mxGeometry>
        </mxCell>
        <mxCell id="fmDMcZmwCV9njAwdJpqf-11" value="" style="endArrow=none;html=1;rounded=0;exitX=0.715;exitY=1.014;exitDx=0;exitDy=0;startArrow=classicThin;startFill=1;endFill=0;dashed=1;exitPerimeter=0;entryX=0.369;entryY=0.022;entryDx=0;entryDy=0;entryPerimeter=0;" edge="1" parent="1" source="fmDMcZmwCV9njAwdJpqf-3" target="fmDMcZmwCV9njAwdJpqf-4">
          <mxGeometry width="50" height="50" relative="1" as="geometry">
            <mxPoint x="470" y="330" as="sourcePoint" />
            <mxPoint x="475" y="330" as="targetPoint" />
          </mxGeometry>
        </mxCell>
        <mxCell id="fmDMcZmwCV9njAwdJpqf-12" value="" style="endArrow=none;html=1;rounded=0;exitX=0.913;exitY=0.165;exitDx=0;exitDy=0;exitPerimeter=0;entryX=0;entryY=1;entryDx=0;entryDy=0;startArrow=classicThin;startFill=1;endFill=0;dashed=1;" edge="1" parent="1" source="fmDMcZmwCV9njAwdJpqf-3" target="fmDMcZmwCV9njAwdJpqf-1">
          <mxGeometry width="50" height="50" relative="1" as="geometry">
            <mxPoint x="530" y="190" as="sourcePoint" />
            <mxPoint x="580" y="140" as="targetPoint" />
          </mxGeometry>
        </mxCell>
        <mxCell id="fmDMcZmwCV9njAwdJpqf-13" value="" style="endArrow=none;html=1;rounded=0;entryX=0.097;entryY=0.185;entryDx=0;entryDy=0;entryPerimeter=0;exitX=1;exitY=1;exitDx=0;exitDy=0;startArrow=classicThin;startFill=1;endFill=0;dashed=1;" edge="1" parent="1" source="fmDMcZmwCV9njAwdJpqf-3" target="fmDMcZmwCV9njAwdJpqf-6">
          <mxGeometry width="50" height="50" relative="1" as="geometry">
            <mxPoint x="390" y="300" as="sourcePoint" />
            <mxPoint x="440" y="250" as="targetPoint" />
          </mxGeometry>
        </mxCell>
        <mxCell id="fmDMcZmwCV9njAwdJpqf-30" value="Xem danh sách phim đang chiếu" style="ellipse;whiteSpace=wrap;html=1;" vertex="1" parent="1">
          <mxGeometry x="80" y="390" width="120" height="50" as="geometry" />
        </mxCell>
        <mxCell id="fmDMcZmwCV9njAwdJpqf-31" value="" style="endArrow=classicThin;html=1;rounded=0;entryX=0.967;entryY=0.268;entryDx=0;entryDy=0;entryPerimeter=0;endFill=1;startArrow=none;startFill=0;dashed=1;" edge="1" parent="1" source="fmDMcZmwCV9njAwdJpqf-3" target="fmDMcZmwCV9njAwdJpqf-30">
          <mxGeometry width="50" height="50" relative="1" as="geometry">
            <mxPoint x="300" y="320" as="sourcePoint" />
            <mxPoint x="350" y="270" as="targetPoint" />
          </mxGeometry>
        </mxCell>
        <mxCell id="fmDMcZmwCV9njAwdJpqf-32" value="&amp;lt;&amp;lt;include&amp;gt;&amp;gt;" style="text;html=1;align=center;verticalAlign=middle;resizable=0;points=[];autosize=1;strokeColor=none;fillColor=none;" vertex="1" parent="1">
          <mxGeometry x="210" y="320" width="90" height="30" as="geometry" />
        </mxCell>
        <mxCell id="fmDMcZmwCV9njAwdJpqf-40" value="&amp;lt;&amp;lt;extend&amp;gt;&amp;gt;" style="text;html=1;align=center;verticalAlign=middle;resizable=0;points=[];autosize=1;strokeColor=none;fillColor=none;" vertex="1" parent="1">
          <mxGeometry x="510" y="280" width="90" height="30" as="geometry" />
        </mxCell>
        <mxCell id="fmDMcZmwCV9njAwdJpqf-42" value="&amp;lt;&amp;lt;extend&amp;gt;&amp;gt;" style="text;html=1;align=center;verticalAlign=middle;resizable=0;points=[];autosize=1;strokeColor=none;fillColor=none;" vertex="1" parent="1">
          <mxGeometry x="474" y="140" width="90" height="30" as="geometry" />
        </mxCell>
        <mxCell id="fmDMcZmwCV9njAwdJpqf-43" value="&amp;lt;&amp;lt;extend&amp;gt;&amp;gt;" style="text;html=1;align=center;verticalAlign=middle;resizable=0;points=[];autosize=1;strokeColor=none;fillColor=none;" vertex="1" parent="1">
          <mxGeometry x="500" y="220" width="90" height="30" as="geometry" />
        </mxCell>
        <mxCell id="fmDMcZmwCV9njAwdJpqf-45" value="Tìm kiếm phim" style="ellipse;whiteSpace=wrap;html=1;" vertex="1" parent="1">
          <mxGeometry x="264" y="375" width="120" height="65" as="geometry" />
        </mxCell>
        <mxCell id="fmDMcZmwCV9njAwdJpqf-46" value="" style="endArrow=none;html=1;rounded=0;exitX=0.709;exitY=0.06;exitDx=0;exitDy=0;entryX=0.381;entryY=1.036;entryDx=0;entryDy=0;startArrow=classicThin;startFill=1;endFill=0;dashed=1;entryPerimeter=0;exitPerimeter=0;" edge="1" parent="1" source="fmDMcZmwCV9njAwdJpqf-45" target="fmDMcZmwCV9njAwdJpqf-3">
          <mxGeometry width="50" height="50" relative="1" as="geometry">
            <mxPoint x="330" y="330" as="sourcePoint" />
            <mxPoint x="330" y="270" as="targetPoint" />
          </mxGeometry>
        </mxCell>
        <mxCell id="fmDMcZmwCV9njAwdJpqf-47" value="&amp;lt;&amp;lt;extend&amp;gt;&amp;gt;" style="text;html=1;align=center;verticalAlign=middle;resizable=0;points=[];autosize=1;strokeColor=none;fillColor=none;" vertex="1" parent="1">
          <mxGeometry x="320" y="310" width="90" height="30" as="geometry" />
        </mxCell>
        <mxCell id="fmDMcZmwCV9njAwdJpqf-48" value="&amp;lt;&amp;lt;extend&amp;gt;&amp;gt;" style="text;html=1;align=center;verticalAlign=middle;resizable=0;points=[];autosize=1;strokeColor=none;fillColor=none;" vertex="1" parent="1">
          <mxGeometry x="430" y="295" width="90" height="30" as="geometry" />
        </mxCell>
        <mxCell id="fmDMcZmwCV9njAwdJpqf-51" value="" style="rounded=0;whiteSpace=wrap;html=1;fillColor=none;" vertex="1" parent="1">
          <mxGeometry x="-60" y="50" width="790" height="400" as="geometry" />
        </mxCell>
        <mxCell id="fmDMcZmwCV9njAwdJpqf-52" value="&amp;lt;&amp;lt;extend&amp;gt;&amp;gt;" style="text;html=1;align=center;verticalAlign=middle;resizable=0;points=[];autosize=1;strokeColor=none;fillColor=none;" vertex="1" parent="1">
          <mxGeometry x="350" y="150" width="90" height="30" as="geometry" />
        </mxCell>
      </root>
    </mxGraphModel>
  </diagram>
</mxfile>
